<svg xmlns="http://www.w3.org/2000/svg" viewBox="0 0 64 64"><path d="M35.5 54.2h-6.9c-1 0-1.7.9-1.7 1.9s.8 1.9 1.7 1.9h6.9c1 0 1.7-.9 1.7-1.9 0-1-.8-1.9-1.7-1.9zM32 34.3c-2.4 0-4.3 1.9-4.3 4.3 0 2 1.4 3.7 3.3 4.2v5.4h2.2v-5.4c1.9-.5 3.3-2.2 3.3-4.2-.2-2.4-2.1-4.3-4.5-4.3zm0 6.5c-1.2 0-2.2-1-2.2-2.2s1-2.2 2.2-2.2 2.2 1 2.2 2.2-1 2.2-2.2 2.2z"/><path d="M32 8.7c8.1 0 14.6 6.5 14.6 14.6 0 3.6-1.4 7.1-3.8 9.8-2 2.1-4.3 5.9-4.3 9.4v6.1c0 1-.8 1.8-1.9 1.8h-9.2c-1.1 0-1.9-.7-1.9-1.8v-6.1c0-3.5-2.3-7.3-4.3-9.4-2.5-2.7-3.8-6.2-3.8-9.8 0-8 6.5-14.6 14.6-14.6M32 6c-9.6 0-17.3 7.7-17.3 17.3 0 4.5 1.7 8.6 4.6 11.7 1.7 1.9 3.5 5 3.5 7.6v6.1c0 2.5 2.1 4.5 4.6 4.5h9.2c2.6 0 4.6-1.9 4.6-4.5v-6.1c0-2.5 1.8-5.7 3.5-7.6 2.8-3.1 4.6-7.2 4.6-11.7C49.3 13.7 41.6 6 32 6z"/></svg>
